<svg xmlns="http://www.w3.org/2000/svg" viewBox="0 0 1000 1000"><path d="M418.3 91.7h-81.7V10h81.7v81.7zm-326.6 490H10v81.7h81.7v-81.7zm0-122.5H10v81.7h81.7v-81.7zm0-122.5H10v81.7h81.7v-81.7zm0-204.2c0-22.5 18.3-40.8 40.8-40.8h163.3V10H132.5C64.8 10 10 64.9 10 132.5v163.3h81.7V132.5zM540.8 10h-81.7v81.7h81.7V10zm122.5 0h-81.7v81.7h81.7V10zM527.4 484.1c0-13.3-8.7-16.2-22-16.2h-19v32.4h19c13.3-.1 22-2.9 22-16.2zM173.3 173.3h653.3v653.3H173.3V173.3zm410.1 351c0 38.6 22.4 57.3 60.7 57.3 37.4 0 60.9-18.7 60.9-57.3v-86.9h-37v86.9c0 19.5-6.6 25.2-23.8 25.2-18.1 0-23.8-8.6-23.8-25.2v-86.9h-36.9v86.9zm-134.1 54.4h37v-47.9h27c32.2 0 50-19.4 50-46.7 0-27.8-18.3-46.7-50-46.7h-64.1v141.3h.1zm-152.6-70.1c0 41.2 26.4 73.1 69.5 73.1 33.7 0 59.1-19.5 62.9-62.1h-36c-6 44.8-59.4 39.3-59.4-10.9 0-23 9.3-42.1 32.5-42.1 12.5 0 23.5 7.6 25.8 23.4h36c-3.7-37.6-29.8-55.7-61.8-55.7-42.9-.1-69.5 32.1-69.5 74.3zm611.6 32.2H990v-81.7h-81.7v81.7zM91.7 867.5V704.2H10v163.3C10 935.1 64.8 990 132.5 990h163.3v-81.7H132.5c-22.5 0-40.8-18.3-40.8-40.8zm816.6 0c0 22.5-18.3 40.8-40.8 40.8H704.2V990h163.3c67.7 0 122.5-54.9 122.5-122.5V704.2h-81.7v163.3zm0-204.2H990v-81.7h-81.7v81.7zm0-245H990v-81.7h-81.7v81.7zM867.5 10H704.2v81.7h163.3c22.5 0 40.8 18.3 40.8 40.8v163.3H990V132.5C990 64.9 935.2 10 867.5 10zM336.7 990h81.7v-81.7h-81.7V990zm245 0h81.7v-81.7h-81.7V990zm-122.5 0h81.7v-81.7h-81.7V990z"/></svg>